<?xml version="1.0" encoding="utf-8"?>
<!-- Generator: Adobe Illustrator 24.0.0, SVG Export Plug-In . SVG Version: 6.00 Build 0)  -->
<svg version="1.1" id="Слой_1" xmlns="http://www.w3.org/2000/svg" xmlns:xlink="http://www.w3.org/1999/xlink" x="0px" y="0px"
	 viewBox="0 0 2107 2107" style="enable-background:new 0 0 2107 2107;" xml:space="preserve">
<style type="text/css">
	.st0{fill:#FFFFFF;stroke:#000000;stroke-miterlimit:10;}
</style>
<g>
	<path class="st0" d="M992.4,400.9c-160.7,7.3-313.3,75-427.7,189.9c-93.2,93.5-155.1,212.1-178.4,341.5
		c-3.7,20.2-3.7,20.5-3.2,20.5c0.2,0,12-7.4,26.3-16.3l25.8-16.4l6.4-11.4c31.6-56.8,80.2-107.4,143.7-149.7
		c21-13.9,55.8-34.2,56.9-33c0.2,0.2-2.1,7-5,15.1c-8.8,23.8-20.3,61.2-19.2,62.3c0.6,0.6,31.3-18.2,34.8-21.3
		c0.9-0.8,2.3-3.5,3-6.1c2.2-8,14.3-41,20.4-55.8l5.9-14l13.9-5.8c43-17.8,92.1-32.9,139.7-43c16.6-3.5,46.1-8.8,46.6-8.4
		c0.1,0.2-0.9,5.7-2.2,12.3c-3.3,16.9-10.4,59.6-10.4,62.8c0,1.5,0.3,2.7,0.8,2.7c0.4,0,6.5,0.7,13.6,1.5c7.1,0.9,13.1,1.3,13.4,1
		c0.4-0.3,2.3-10.6,4.3-22.8s5.3-30.9,7.4-41.5c3.3-16.9,4-19.5,5.9-20.2c2.3-1,26-3.3,52.6-5.2c22-1.5,89.2-1.5,111,0
		c25.4,1.8,51.7,4.4,53.1,5.3c1.4,0.9,7.2,29,12.1,58.7c2.7,16.8,3.6,20.1,4.8,19.6c7.7-3.3,15.5-5.6,20.6-6.1
		c6.1-0.6,6.3-0.7,5.9-3.2c-0.3-1.4-2.1-11.9-4-23.3c-1.9-11.3-4.4-25.3-5.5-30.9c-1.1-5.7-1.8-10.4-1.7-10.6
		c0.7-0.6,35.8,5.9,55.7,10.4c46.5,10.3,102.3,28.2,139.1,44.6l5.6,2.4l7,17.4c17.1,42,30.5,85.5,40.8,132.7
		c3.3,15,9.6,49.4,9.1,49.9c-0.1,0.1-1.9-0.2-4.1-0.7c-21.3-4.7-88.3-15-127-19.5c-12.1-1.3-23.9-2.7-26.2-3.1
		c-5-0.6-5.5,0.5-1.4,2.9c5.4,3.2,17.9,15.7,22.7,22.7c3.9,5.7,5.2,7,7.4,7c12.7,0,129.5,19.4,132.3,22c2.2,2,6.7,62.1,6.7,88.5
		v15.4l4.5,3.7c9.1,7.4,18.9,23.3,21.7,35.2c0.7,2.8,1.7,5.2,2.2,5.2s0.6-20.4,0.3-48.3c-0.5-43.4-1.8-69.1-4.3-88.1l-0.6-4.8
		l3.3,0.7c22.7,4.9,71,20,94.5,29.6c17.3,7,41.8,19.4,53.2,27c16.5,11,28.8,24.2,32.8,35.1c10.8,29.7-28.7,62.8-109.1,91.3
		c-10.6,3.8-34.2,11.1-51.9,16c-3.2,0.9-5.5,2-5,2.4c0.5,0.4,3.2,1.6,5.9,2.6c8,2.9,18.6,8.4,24.2,12.6c2.9,2.1,5.9,3.9,6.7,3.9
		c2.7,0,37.9-12.1,53.1-18.2c20.4-8.2,43.7-20.1,58.1-29.7c6.5-4.3,12-7.7,12.2-7.6c0.7,0.6-5.1,20.2-9.5,32.5
		c-14,38.7-37.6,77.1-69.7,113c-5.8,6.6-10.6,12.2-10.6,12.5c0,0.3,1.8,2.9,3.9,5.8c2.2,2.9,5.4,8.3,7.1,12c1.8,3.7,3.5,6.7,4,6.7
		c1.2,0,24.2-25.6,34.5-38.5c5.3-6.6,12.2-15.7,15.2-20.2c3.1-4.6,5.8-8.1,6-7.9c0.7,0.6-9.4,30-16.2,47.1
		c-8.4,21.3-19.4,44.9-29.9,64.4l-8.5,15.9l-2.1,17.8c-1.9,15.5-4.6,33.6-6.6,42.6c-0.5,2.3-0.3,2.8,1.4,2.8c1.5,0,4.6-4,12.3-15.7
		c51.9-79.6,85.6-168.9,98.8-261.8c4.9-33.9,5.5-44.1,5.6-90.5c0-46.7-0.5-55.3-5.1-90c-14.2-106.6-57-210.7-122.7-298.6
		c-34.7-46.5-83.5-95.5-129.5-130.1c-95-71.3-206.5-114.9-324.2-126.7C1056.4,400.2,1024.8,399.4,992.4,400.9z M1032,430.8
		c31.5,9.7,64.5,71.3,89.7,167.4c2.3,8.7,4,15.9,3.8,16.1c-0.2,0.2-6.6-0.2-14.3-1c-53.1-5.2-121.8-5.2-176.2,0
		c-7.6,0.7-14,1.1-14.2,0.9c-0.8-0.8,9.2-37.1,16.1-58.4c17.2-53.1,35.2-88.9,54.6-109.2c8.6-9,16.6-14.4,24-16.4
		C1022.1,428.4,1024.6,428.5,1032,430.8z M956,443.5c-20.7,28.9-40,74.4-56.2,132.8c-3.2,11.5-6.9,25.5-8.1,31s-2.5,10.3-2.9,10.7
		c-0.3,0.4-8,1.9-17.1,3.3c-52.9,8.5-110,23.3-156,40.4c-7.4,2.8-13.6,4.9-13.8,4.7c-1-1.1,18.2-34.6,31.4-54.7
		c30.1-45.8,69-88.4,106.9-117c34.7-26.2,71.2-44.9,107.5-54.9c9.9-2.7,12.6-3.5,13.7-3.9C961.5,435.8,959.1,439.3,956,443.5z
		 M1108.7,443c88.4,28.8,167,100.1,226.5,205.6c5.4,9.5,9.6,17.5,9.3,17.7c-0.2,0.3-7.8-2.2-16.9-5.6c-45.9-16.8-105.4-32-156.4-40
		l-14-2.1l-4.2-17.2c-16.1-65.6-37.1-119.5-59.8-153.2L1085,436l7.1,1.9C1096,439,1103.5,441.3,1108.7,443z M845.7,455.2
		c0,0.2-2.6,2-5.7,4.1c-3.2,2.1-11.1,7.8-17.6,12.8c-59.8,45.5-113.3,113.1-152.5,192.8l-9.7,19.7l-10.2,4.7
		c-34.9,16.2-80.5,43.9-112.2,68.3c-39.9,30.7-76.1,67.8-99.6,102.2c-3.2,4.7-6.2,8.9-6.6,9.4c-1.1,1.3,5.1-18.1,11.3-34.9
		c25.3-68.8,63-132.7,112.4-190.5c13.2-15.5,49.9-52.1,65.8-65.6c38.9-33.1,81.1-61.1,125.6-83.4c28.7-14.4,45.5-21.5,77.5-32.6
		C848,453.9,845.7,454.7,845.7,455.2z M1219.3,461.2c30.7,10.5,52.6,19.7,81.4,34.2c146,73.5,257.2,202.3,309.2,357.8
		c2.7,8.1,4.8,15,4.6,15.1c-0.2,0.2-3-3.5-6.3-8.3c-36.4-52.4-91.1-101.6-157.5-141.4c-14.8-8.9-42.8-23.9-55.5-29.7l-9-4.2
		l-11.7-23.2c-42.8-84.7-97.9-152.1-161.5-197.5c-6.4-4.5-11.1-8.2-10.6-8.2C1203,455.8,1210.6,458.2,1219.3,461.2z M1437.2,744.1
		c92.2,55.2,158.5,128.9,186.8,207.7c4.7,12.9,10.2,31.9,9.5,32.6c-0.3,0.2-3.1-1.6-6.4-4c-32.6-23.7-92.7-47.5-160.9-63.7
		c-7.7-1.8-14.1-3.3-14.2-3.4c-0.1,0-1.3-7.4-2.8-16.5c-9-55.5-25.6-118.5-43.3-164.3l-3.1-7.8l9.7,5.2
		C1417.8,732.8,1429,739.1,1437.2,744.1z"/>
	<path class="st0" d="M796.6,717.1c-2.2,1.4-3.9,3.8-4.9,6.5c-1.3,3.9-1.3,4.4,1,9.4l2.5,5.3l0.3,53.7l0.2,53.8h-5.5
		c-3,0-5.5,0.1-5.6,0.2c-0.2,1.1-2.8,169-2.9,185.5v21.3h-5.5h-5.5L770.5,908l-0.3-144.7L768,763c-1.6-0.2-58,34.9-190.8,119
		c-103.7,65.6-188.2,119.4-187.7,119.6c0.7,0.2,249.4-129.9,319.2-167c5.2-2.8,9.1-4.6,8.5-4c-0.5,0.5-75.5,47.2-166.5,103.7
		c-91,56.6-165.7,103-165.9,103.2c-3.3,2.6,25.2-9.9,165.9-73.2c91-40.9,165.5-74.3,165.6-74.2c0.1,0.1-75.1,42-167.3,93.2
		c-92.1,51.1-167,93.1-166.5,93.3c0.5,0.1,75.1-28.5,165.8-63.7c90.6-35.3,164.9-63.9,165.1-63.8c0.1,0.2-75,37.4-167,82.7
		c-91.9,45.3-167.4,82.5-167.6,82.7c-0.2,0.1-0.2,0.5,0,0.8c0.3,0.2,74.7-24.3,165.5-54.5c90.7-30.3,165.3-54.9,165.8-54.7
		c0.4,0.1-74.5,33.1-166.5,73.1c-92.1,40.1-167.6,73-167.8,73.2s-0.2,0.6,0,0.8c0.2,0.2,75.1-19.3,166.4-43.4
		c91.3-24.1,166.1-43.7,166.2-43.6c0.2,0.1-73.6,27.4-164,60.6c-184.3,67.7-172.4,63.3-171.1,63.7c0.6,0.2,76.1-15.4,167.9-34.7
		c91.8-19.2,167-34.9,167.1-34.7c0.2,0.2-76.1,24.1-169.6,53.3c-93.5,29.1-170,53.2-170,53.5s1,0.4,2.3,0.2
		c15.1-2.5,332.6-49.3,333.7-49.1c0.7,0.2-80,20.7-179.5,45.7c-99.6,25-181.4,45.8-182,46.3c-0.6,0.6,1,0.7,4,0.3
		c13.5-1.6,352.3-32.5,353.9-32.3c1.1,0.2-79.9,14.9-180,32.7c-100,17.8-182.2,32.7-182.7,33c-0.4,0.4,8.6,2,20,3.5
		c11.5,1.5,22,3,23.4,3.3c2.6,0.5,2.7,0.6,3.3,11.7c0.4,6.1,0.9,13.5,1.2,16.3l0.6,5.3h19.8h19.7l0.6,28.2
		c0.9,40.4,4.6,69.7,10.6,83.3l2,4.5h-51h-50.9v14.4v14.3l90.3,0.7c542.3,4.1,937.2,21.5,1116.6,49.2c15.9,2.5,16.4,2.5,18.1,0.7
		c1-1,14.5-19.1,30-40.3l28.1-38.5l-80.5-0.3c-44.3-0.1-80.6-0.4-80.6-0.7c0-0.2,1.2-2.1,2.6-4.2c6-8.8,11.9-23.6,14.4-36.6l1.1-5.7
		h12.5h12.4l3.3-6.8c7.4-14.6,10.7-29.8,11.4-52.3l0.6-15.6l-13.9-0.6c-7.7-0.4-23.2-1-34.6-1.3l-20.8-0.7v24.6
		c0,13.5-0.3,25.2-0.6,26.1c-0.4,1.1-1.9,1.6-4.5,1.6h-3.9v-26.3v-26.4l-21.7-0.6c-12-0.4-25.5-0.7-30-0.7h-8.3v17.5v17.5h-23.2
		c-12.8,0-41.9-0.3-64.5-0.7l-41.3-0.6v-18.8V1331l-18.2-0.6c-10.1-0.3-26.1-0.7-35.5-0.9l-17.3-0.4l-0.2,29.6l-0.3,29.6l-4.2,0.3
		l-4.3,0.3v-30.2v-30.1l-83.2,0.6c-45.8,0.3-84.6,0.7-86.2,0.8c-2.6,0.3-3-0.1-5.3-6.6c-1.5-4.1-2.1-7.2-1.6-7.7
		c2.2-2.2,54.7-3.1,136.8-2.6c91.5,0.6,146.8,2,323.3,7.8c34.3,1.1,62.5,1.9,62.7,1.7c0.2-0.2-0.2-4.8-0.9-10.2l-1.2-9.9l-5-4.6
		c-6.1-5.6-14.6-10.2-23.9-13c-5.7-1.7-11.2-2.2-30.6-2.9c-12.9-0.5-24-1.2-24.7-1.6c-0.7-0.4-1.2-2.3-1.2-4.3v-3.5l28.6,0.3
		l28.6,0.4l2.5-3l2.6-2.9l-0.7-24.6c-0.8-27.3-1.7-32.3-6.9-39.2c-7.3-9.5-28.8-18.1-52.1-20.6c-4.8-0.6-8.9-1.2-9.2-1.5
		c-0.3-0.2-2-20.6-3.9-45.3c-3.5-47.1-3.9-49.1-9.1-55.3c-5.8-6.9-6.5-7.1-75.4-20.2c-35.5-6.7-64.6-12.2-64.6-12.3
		c-0.1,0-3.9-17.7-8.4-39.1c-4.5-21.5-8.7-39.9-9.2-41c-1.8-3.6-7.1-8.4-10.2-9.5c-8.2-2.6-68.2-10.9-104.6-14.5
		c-52.8-5.1-111.4-8.3-185-10c-22.3-0.5-24.8-0.4-27.9,1.2c-5.7,3-7.5,6.3-7.3,13.5c0.5,27.1,3.5,105.6,4,107
		c0.6,1.4,1.9,0.6,7.9-4.2c13.5-10.9,28.6-16.2,42.3-14.6c14.9,1.7,142,25,146.1,26.7c5.8,2.5,12.2,9,15.1,15.4
		c2.2,4.9,2.3,6.3,3.2,49.7c0.4,24.6,0.6,45.7,0.3,47c-0.4,1.3-1.2,3.1-2,4.2c-1.3,1.8-2,1.6-14.8-4.7
		c-41.2-20.3-93.8-28.2-135.5-20.2c-13.3,2.5-26.4,7.3-29.2,10.7c-0.9,1.2,1.1,1.4,13.1,1.4c16.5-0.1,22.8,1.3,35.3,7.4
		c5.5,2.7,9.6,5.6,13.1,9.3c7.5,7.9,8.5,12,8.1,34.7l-0.3,18.1l3.3,3c2.6,2.3,4.2,2.9,7.7,2.9h4.5v-19.5v-19.5h29.3
		c32.1,0,33.7,0.3,38.1,6.3c1.9,2.5,2.1,4.5,2.4,17.7l0.3,14.8l22.2,0.6c12.2,0.3,76.9,1.5,143.7,2.7c101.5,1.7,121.9,2.3,124.3,3.5
		c3.6,1.9,6.7,7,6.7,11.1v3.3h-8.2c-4.6,0-62.7-1.2-129.1-2.6c-66.4-1.4-121-2.4-121.3-2.1c-0.3,0.2,0.1,7.2,0.9,15.6
		c0.7,8.3,1.2,15.1,1.1,15.1s-4.4-5.2-9.4-11.5l-9.2-11.5h-74.9c-59.1,0-75-0.3-75.3-1.3c-0.2-0.6-1.4-4.8-2.5-9.2
		c-3.5-12.9-12.1-29.4-18.9-36.3c-8-8.1-13.6-10.6-23.7-10.6c-11,0.1-17.7,2.8-26.1,10.6c-12,11.2-20.6,28.6-27.4,55.3
		c-6.3,24.7-11,61.8-11,87.7v11.7l-5.7-0.6c-3.2-0.3-6-0.7-6.2-0.9c-0.7-0.6,1.9-38.4,4-56.9c2.9-26.6,8.1-56.3,12.4-70.8
		c0.8-2.6,1.1-4.7,0.8-4.7c-0.3,0-4.2,1.1-8.7,2.5c-10.8,3.3-26.1,6.5-31.2,6.5c-5.2,0-9-2.8-10.4-7.8c-0.6-2.5-1-52.6-1-149.3
		V947.1L840,940c17-8.5,34.4-15.5,54.4-21.9l14.8-4.8l28,0.2c101.1,0.6,234.3,11.4,299.8,24.3c8.3,1.6,15.2,2.8,15.5,2.6
		c1.1-1.2-4.6-9.2-10.5-14.6c-7.7-7.1-24-15.6-35.8-18.8l-7-1.9l-0.3-17.9c-0.2-12.7-0.6-18-1.5-18.6c-0.6-0.5-3.1-1.3-5.4-1.9
		l-4.3-1.1v-42.8c0-40.1-0.1-43.2-2-49.1c-2.2-7-3.2-8.6-7-11.2c-4.1-2.8-7.8-2.2-12.1,2.2c-3.3,3.3-3.9,4.5-3.9,8.2
		c0,2.5,0.9,6.1,2,8.2c1.9,3.6,2,5.6,2,61.8c0,54.8-0.1,58-1.7,57.6c-1-0.3-3.5-0.8-5.5-1.2l-3.8-0.6v-23.2
		c0-12.8-0.3-34.2-0.7-47.7l-0.6-24.5l-166.6-18.9c-91.6-10.3-167.6-19-168.8-19.3c-2.1-0.5-2.1-1-2.5-16.6
		c-0.5-18.7-2.1-25.2-7.3-30.4C805.2,714.1,801.5,713.8,796.6,717.1z M1288.7,1100.3c102,6.1,97.2,5.5,101.4,12.7
		c1.1,2,1.8,4,1.4,4.3c-0.4,0.4-47.8-1.6-105.5-4.4c-57.6-2.8-106-5.1-107.5-5.1c-3.2,0-3.6-1.6-1.3-6.1c2.4-4.5,7-6.9,13.5-6.9
		C1193.7,1094.8,1237.8,1097.3,1288.7,1100.3z M1293.9,1132.2c99.9,4.8,94,4.1,98.1,11.9c1.1,2.1,1.8,4,1.6,4.2
		c-0.2,0.2-46.8-1.4-103.4-3.6c-56.7-2.1-105.6-3.9-108.7-3.9h-5.7l1-3.2c1.1-4.1,5.5-8.7,9.4-9.6c1.6-0.5,6.4-0.7,10.5-0.4
		C1200.8,1127.8,1244.5,1129.9,1293.9,1132.2z M1293.2,1163.9c101.8,3.6,96.9,3,100.5,11.1c1,2.3,1.8,4.3,1.7,4.3
		c-0.1,0.1-46.1-1.1-102.2-2.6s-105.3-2.8-109.4-2.8l-7.3-0.1l0.6-2.6c2-8,8.4-11.6,19.1-10.9
		C1200.1,1160.6,1243.7,1162.2,1293.2,1163.9z M1295.7,1195.9c84,1.9,89.8,2.2,93.6,4c4,1.9,8.6,8,7.1,9.5
		c-0.8,0.8-217.5-2.1-218.4-2.9c-1-1,0.6-5.5,3-8.2c3.2-3.7,8.5-5.2,17.5-4.8C1202.7,1193.7,1246.5,1194.7,1295.7,1195.9z
		 M1472.7,1222.3c1.6,0.8,3.4,2.4,4,3.4c0.5,1.1,1,7.6,1,14.5v12.6h-25h-25v-4.8c0-2.6-0.3-9.8-0.7-16l-0.6-11.2h21.7
		C1465.5,1220.8,1470.4,1221.1,1472.7,1222.3z M571.6,1290.7c13.5,11.3,28,18,38.7,18.1c5.8,0,6.2,0.2,7.2,2.7
		c3.7,9.4,6.2,27.7,6.2,45.3v11h-34.4h-34.4l-1.2-7.3c-2.8-17.9-10.9-38.8-18.4-47.2c-1.9-2.2-3.5-3.5-3.6-3c0,0.6,1.1,5.4,2.5,10.8
		c3.2,12.6,4.9,29.6,4,39.2l-0.7,7.5h-7.7H522l-0.7-5.3c-0.3-2.8-0.6-8.6-0.6-12.7c0-17.5-4.3-41.8-9.1-51.1c-1.4-2.8-1.6-3.9-0.7-4
		c0.7,0,13.2-1.7,27.8-3.8c14.6-2.1,26.9-3.9,27.4-4C566.5,1286.9,569,1288.5,571.6,1290.7z M905.9,1325.1
		c-0.8,32.2,6.1,58.8,18.4,71.1c8.3,8.3,17.1,8.2,25.7-0.4l4.8-4.8l-0.6,3.1c-3.9,18.7-14.3,35.2-23.7,37.7
		c-14.5,4-28.4-17.9-32.9-51.5c-1.5-11.3-0.6-39.4,1.6-49c1.4-6.2,6.3-22.5,6.9-22.5C906.2,1308.8,906.1,1316.1,905.9,1325.1z
		 M483.1,1398.2c2.2,9.4,4.9,15.1,8.1,17.2c2.5,1.6,2.7,1.6,5.7-0.6l3.1-2.3l-0.8,3.9c-1.8,10.1-6.2,18.4-9.5,18.4
		c-7.3,0-12.8-23.5-11.6-50.5c0.9-22.1,1.9-24.9,2.7-7.5C481.2,1384.8,482.2,1394.4,483.1,1398.2z M446.2,1400.9
		c2.7,10.4,6.3,15.9,10.5,15.9c0.6,0,2.2-1.2,3.6-2.7l2.6-2.8l-0.7,3c-6.7,31.2-17.9,25.2-21.6-11.5c-1-10.7-0.8-21.4,0.8-33.5
		c0.6-4.2,0.9-2.6,2,10.2C444,1387.8,445.3,1397.4,446.2,1400.9z M1318.9,1424.2c2.7,10.9,8.5,24.4,13.7,32l3.2,4.6h-158.2
		c-126.1,0-158-0.3-157.6-1.3c5.7-13.1,14.7-40.2,14.7-44.3c0-1.2,20.4-1.4,140.8-1.4h140.8L1318.9,1424.2z M885.5,1438.6
		c1.3,4.2,3.9,11,5.7,14.9l3.4,7.3h-21.9h-21.9l2.4-3.6c3.1-4.6,6.4-17.1,6.5-25.2c0-0.9,3-1.2,11.8-1.2h11.7L885.5,1438.6z
		 M689.4,1442.1c0.6,3.4,2.2,9.1,3.6,12.5l2.5,6.2H640c-30.5,0-55.3-0.3-55.1-0.8c2.9-5.7,6.1-13.4,7.5-18.2l1.8-6h47h47.1
		L689.4,1442.1z"/>
	<path class="st0" d="M881.7,946.7c-20.3,7.9-31.4,13-33.7,15.7c-2.3,2.5-2.3,2.6-2.3,39c0,23.1,0.4,37.2,1,38.5
		c1.4,2.5,6.2,4.9,9.8,4.9c1.7,0,9.2-2.3,16.8-5c7.6-2.8,14.1-5,14.4-5s5.3,6,11,13.2c6.5,8.3,10.6,12.7,10.8,11.7
		c0.2-0.9-0.6-16-1.7-33.5c-1.1-17.6-2.5-42-3.1-54.4c-0.6-12.4-1.6-23.7-2.1-25.1c-1-2.5-4.6-4.9-7.2-4.9
		C894.7,941.9,888.6,944.1,881.7,946.7z"/>
	<path class="st0" d="M898.8,1103.3c-4.5,1.9-8.9,3.9-9.7,4.6c-1.2,0.9-1.4,8.3-1.4,42.5c0,50.4-1.2,47.1,14.6,40.8
		c4.9-2,9.5-4.1,10.2-4.6c0.9-0.8,1.2-10.6,1.2-42.9c0-40.3-0.1-41.9-1.9-42.9C909,1099.3,908.1,1099.5,898.8,1103.3z"/>
	<path class="st0" d="M847.9,1153.5l-6.2,2.5l0.2,28.2l0.3,28.1l3.5-0.1c1.9-0.1,5.6-1.1,8.3-2.2l4.7-2.1v-27.4
		c0-27.2-0.3-29.8-3.4-29.7C854.7,1150.9,851.4,1152.1,847.9,1153.5z"/>
</g>
</svg>
